<?xml version="1.0" encoding="utf-8"?>
<svg viewBox="-1.389 1.297 149.831 130.654" xmlns="http://www.w3.org/2000/svg">
  <title> flat-nasa-logo </title>
  <g transform="matrix(1, 0, 0, 1, 6.945969, 5.422434)">
    <path d="M65.0263922,-7.95807864e-15 C31.6629995,-7.95807864e-15 4.12802698,27.442631 4.12802698,60.7519247 C4.12802698,94.0899504 31.5476297,121.51024 64.8863922,121.51024 C98.2170114,121.51024 125.638236,94.0875614 125.638236,60.7519247 C125.638236,27.3952054 98.331824,-7.95807864e-15 65.0263922,-7.95807864e-15 Z M65.0263922,4.2 C96.0091703,4.2 121.438236,29.7117544 121.438236,60.7519247 C121.438236,91.7680153 95.8973656,117.31024 64.8863922,117.31024 C33.8672493,117.31024 8.32802698,91.770378 8.32802698,60.7519247 C8.32802698,29.7653912 33.9794429,4.2 65.0263922,4.2 Z"/>
    <path d="M44.0810874,101.123095 L44.3246776,102.37953 C44.6137566,102.459423 44.8399014,102.699098 44.902837,102.994862 L46.1659548,103.175192 L44.8941962,103.399215 C44.8110432,103.686178 44.5855508,103.912161 44.294187,103.981778 L44.0810874,105.262181 L43.8658654,103.973136 C43.5789046,103.888356 43.3594448,103.660091 43.2877032,103.373128 L42.078883,103.175192 L43.2898242,102.959974 C43.3729786,102.664369 43.6137954,102.431703 43.9138014,102.366486 L44.0810874,101.123095 Z M92.07527,101.494842 C92.3361362,101.494842 92.5492442,101.707782 92.5492442,101.966534 C92.5492442,102.227406 92.3361418,102.440504 92.07527,102.440504 C91.8187998,102.440504 91.6035778,102.227406 91.6035778,101.966534 C91.6035778,101.707782 91.8187942,101.494842 92.07527,101.494842 Z M48.8681158,97.0642343 C49.1289862,97.0642343 49.3420858,97.2773367 49.3420858,97.5382085 C49.3420858,97.7969607 49.1289862,98.0098965 48.8681158,98.0098965 C48.6072398,98.0098965 48.3964222,97.7969607 48.3964222,97.5382085 C48.3964222,97.2773367 48.6072398,97.0642343 48.8681158,97.0642343 Z M42.3376366,95.8316085 C42.5941082,95.8316085 42.8072078,96.0425843 42.8072078,96.3055785 C42.8072078,96.5620543 42.5941082,96.7751525 42.3376366,96.7751525 C42.078883,96.7751525 41.8636624,96.5620543 41.8636624,96.3055785 C41.8636624,96.0425843 42.078883,95.8316085 42.3376366,95.8316085 Z M61.7922718,95.7577445 C62.051024,95.7577445 62.263964,95.9708483 62.263964,96.2294367 C62.263964,96.4881903 62.051024,96.7012927 61.7922718,96.7012927 C61.5379198,96.7012927 61.3226978,96.4881903 61.3226978,96.2294367 C61.3226978,95.9708483 61.5379198,95.7577445 61.7922718,95.7577445 Z M103.953164,89.6381443 L104.196592,90.8924547 C104.490074,90.9756105 104.713938,91.2141467 104.781436,91.5120303 L106.040154,91.6902405 L104.768394,91.9142643 C104.691762,92.2012265 104.455344,92.4250865 104.170504,92.4968267 L103.953164,93.7751065 L103.742184,92.4859025 C103.455222,92.4027523 103.23788,92.1751403 103.164022,91.8881767 L101.946558,91.6902405 L103.171198,91.4729003 C103.25435,91.1794183 103.495004,90.9490343 103.795006,90.8815305 L103.953164,89.6381443 Z M73.0554818,91.7642627 C73.3119478,91.7642627 73.527174,91.9772027 73.527174,92.2359563 C73.527174,92.4968267 73.3119478,92.7099263 73.0554818,92.7099263 C72.7967282,92.7099263 72.581502,92.4968267 72.581502,92.2359563 C72.581502,91.9772027 72.7967282,91.7642627 73.0554818,91.7642627 Z M48.1050598,91.3990405 C48.42691,91.3990405 48.6854998,91.6620347 48.6854998,91.9816043 C48.6854998,92.2990543 48.42691,92.5641667 48.1050598,92.5641667 C47.79201,92.5641667 47.5290158,92.2990543 47.5290158,91.9816043 C47.5290158,91.6620347 47.79201,91.3990405 48.1050598,91.3990405 Z M30.6787152,91.1838185 C30.9982848,91.1838185 31.257037,91.4446903 31.257037,91.7642627 C31.257037,92.0815503 30.9982848,92.3447083 30.6787152,92.3447083 C30.3570246,92.3447083 30.100553,92.0815503 30.100553,91.7642627 C30.100553,91.4446903 30.3570246,91.1838185 30.6787152,91.1838185 Z M107.040762,91.0380603 C107.299514,91.0380603 107.512458,91.2511585 107.512458,91.5076287 C107.512458,91.7685047 107.299514,91.9816043 107.040762,91.9816043 C106.77989,91.9816043 106.569074,91.7685047 106.569074,91.5076287 C106.569074,91.2511585 106.779886,91.0380603 107.040762,91.0380603 Z M28.3918334,89.4402067 C28.648305,89.4402067 28.8635242,89.6554245 28.8635242,89.9120585 C28.8635242,90.1729345 28.648305,90.3816325 28.3918334,90.3816325 C28.1330784,90.3816325 27.9178564,90.1729345 27.9178564,89.9120585 C27.9178564,89.6554245 28.1330784,89.4402067 28.3918334,89.4402067 Z M38.2636086,89.0055263 C38.5244818,89.0055263 38.7419844,89.2163425 38.7419844,89.4772185 C38.7419844,89.7359707 38.5244818,89.9489107 38.2636086,89.9489107 C38.0115386,89.9489107 37.7963194,89.7359707 37.7963194,89.4772185 C37.7963194,89.2163425 38.0115386,89.0055263 38.2636086,89.0055263 Z M89.901378,88.8620445 C90.162254,88.8620445 90.3730702,89.0728663 90.3730702,89.3316185 C90.3730702,89.5902083 90.162254,89.8033107 89.901378,89.8033107 C89.6426258,89.8033107 89.427408,89.5902083 89.427408,89.3316185 C89.427408,89.0728663 89.6426202,88.8620445 89.901378,88.8620445 Z M102.753794,88.3510585 C103.010268,88.3510585 103.225486,88.5641623 103.225486,88.8229145 C103.225486,89.0815043 103.010268,89.2967263 102.753794,89.2967263 C102.495046,89.2967263 102.279824,89.0815043 102.279824,88.8229145 C102.279824,88.5641623 102.495046,88.3510585 102.753794,88.3510585 Z M22.7960992,86.7532105 C23.0590892,86.7532105 23.2743112,86.9684325 23.2743112,87.2271847 C23.2743112,87.4836563 23.0590892,87.6967545 22.7960992,87.6967545 C22.5373442,87.6967545 22.3242432,87.4836563 22.3242432,87.2271847 C22.3242432,86.9684325 22.5373442,86.7532105 22.7960992,86.7532105 Z M29.1548866,86.1010303 C29.474459,86.1010303 29.7309278,86.3619007 29.7309278,86.6793507 C29.7309278,86.9989203 29.474459,87.2597963 29.1548866,87.2597963 C28.8309154,87.2597963 28.5721604,86.9989203 28.5721604,86.6793507 C28.5721604,86.3619007 28.8309154,86.1010303 29.1548866,86.1010303 Z M44.4029404,83.2684327 C44.7202266,83.2684327 44.9855,83.5293045 44.9855,83.8467545 C44.9855,84.1663283 44.7202266,84.4293183 44.4029404,84.4293183 C44.085489,84.4293183 43.8224948,84.1663283 43.8224948,83.8467545 C43.8224948,83.5293045 44.085489,83.2684327 44.4029404,83.2684327 Z M107.986428,83.4119145 C108.238658,83.4119145 108.451598,83.6227307 108.451598,83.8858845 C108.451598,84.1423603 108.238658,84.3575767 107.986428,84.3575767 C107.725558,84.3575767 107.512458,84.1423603 107.512458,83.8858845 C107.512458,83.6227307 107.725552,83.4119145 107.986428,83.4119145 Z M94.36672,83.1249523 C94.6884022,83.1249523 94.94716,83.3858227 94.94716,83.7032783 C94.94716,84.0205603 94.6884078,84.2837183 94.36672,84.2837183 C94.051384,84.2837183 93.7839882,84.0205603 93.7839882,83.7032783 C93.7839882,83.3858227 94.051384,83.1249523 94.36672,83.1249523 Z M110.921258,82.1771663 C111.240822,82.1771663 111.503822,82.4401563 111.503822,82.7597287 C111.503822,83.0792983 111.240822,83.3401743 110.921258,83.3401743 C110.60609,83.3401743 110.345214,83.0792983 110.345214,82.7597287 C110.345214,82.4401563 110.60609,82.1771663 110.921258,82.1771663 Z M89.901378,82.3227663 C90.162254,82.3227663 90.3730702,82.5358645 90.3730702,82.7944543 C90.3730702,83.0553303 90.162254,83.2684327 89.901378,83.2684327 C89.6426258,83.2684327 89.427408,83.0553303 89.427408,82.7944543 C89.427408,82.5358645 89.6426202,82.3227663 89.901378,82.3227663 Z M108.697312,76.8292587 L108.940738,78.0856943 C109.232102,78.1688445 109.455962,78.4052625 109.519056,78.7052685 L110.782178,78.8836383 L109.510422,79.1074983 C109.427266,79.3900603 109.20161,79.6183247 108.910406,79.6858243 L108.697312,80.9662223 L108.479966,79.6793045 C108.197246,79.5994065 107.975508,79.3683743 107.91257,79.0814163 L106.695102,78.8836383 L107.916806,78.6661385 C107.988552,78.3684145 108.229856,78.1422683 108.529862,78.0726505 L108.697312,76.8292587 Z M94.438456,79.0574427 C94.7580242,79.0574427 95.023138,79.3183187 95.023138,79.6357687 C95.023138,79.9574565 94.7580242,80.2183325 94.438456,80.2183325 C94.1188878,80.2183325 93.8557298,79.9574565 93.8557298,79.6357687 C93.8557298,79.3183187 94.1188878,79.0574427 94.438456,79.0574427 Z M102.788528,78.7639607 C103.112502,78.7639607 103.37109,79.0292383 103.37109,79.3466883 C103.37109,79.6618563 103.112502,79.9292507 102.788528,79.9292507 C102.47336,79.9292507 102.208082,79.6618563 102.208082,79.3466883 C102.208082,79.0292383 102.47336,78.7639607 102.788528,78.7639607 Z M101.73639,76.0052285 C101.999384,76.0052285 102.208082,76.2183267 102.208082,76.4770803 C102.208082,76.7356743 101.999384,76.9466543 101.73639,76.9466543 C101.475518,76.9466543 101.26453,76.7356743 101.26453,76.4770803 C101.26453,76.2183267 101.475514,76.0052285 101.73639,76.0052285 Z M44.2203258,72.3748465 C44.481199,72.3748465 44.6941376,72.5856627 44.6941376,72.8465387 C44.6941376,73.1052923 44.481199,73.3182323 44.2203258,73.3182323 C43.9636918,73.3182323 43.748474,73.1052923 43.748474,72.8465387 C43.748474,72.5856627 43.9636918,72.3748465 44.2203258,72.3748465 Z M49.8855182,29.5198721 L50.1356338,30.7741839 C50.4268338,30.8573341 50.6485742,31.0958703 50.7137918,31.3937581 L51.972508,31.5719641 L50.707272,31.7959921 C50.6241162,32.0829501 50.3942222,32.3068143 50.098622,32.3785559 L49.8855182,33.6568343 L49.6703018,32.3676303 C49.3898622,32.2844759 49.1681162,32.0568639 49.098658,31.7699059 L47.8833138,31.5719641 L49.105182,31.3567463 C49.1850758,31.0590223 49.42035,30.8307579 49.7203518,30.7632583 L49.8855182,29.5198721 Z M45.8202962,32.5045881 C46.0811694,32.5045881 46.291987,32.7198101 46.291987,32.9785623 C46.291987,33.2350339 46.0811694,33.4502559 45.8202962,33.4502559 C45.5615412,33.4502559 45.3463234,33.2350339 45.3463234,32.9785623 C45.3463234,32.7198101 45.5615412,32.5045881 45.8202962,32.5045881 Z M43.787604,30.0372141 C44.0463562,30.0372141 44.2594586,30.2503179 44.2594586,30.5089063 C44.2594586,30.7676599 44.0463562,30.9828819 43.787604,30.9828819 C43.5267308,30.9828819 43.3137922,30.7676599 43.3137922,30.5089063 C43.3137922,30.2503179 43.5267308,30.0372141 43.787604,30.0372141 Z M76.870752,26.3328141 C77.1838018,26.3328141 77.4446722,26.5958041 77.4446722,26.9153779 C77.4446722,27.2328279 77.1838018,27.4936983 76.870752,27.4936983 C76.544664,27.4936983 76.2816698,27.2328279 76.2816698,26.9153779 C76.2816698,26.5958041 76.544664,26.3328141 76.870752,26.3328141 Z M54.75309,22.3414463 C55.0095602,22.3414463 55.2247822,22.5545459 55.2247822,22.8110161 C55.2247822,23.0718921 55.0095602,23.2827083 54.75309,23.2827083 C54.4943378,23.2827083 54.2791158,23.0718921 54.2791158,22.8110161 C54.2791158,22.5545459 54.4943378,22.3414463 54.75309,22.3414463 Z M68.4098142,21.4696383 C68.668404,21.4696383 68.877102,21.6827379 68.877102,21.9414943 C68.877102,22.2000841 68.668404,22.4131823 68.4098142,22.4131823 C68.1489382,22.4131823 67.9379582,22.2000841 67.9379582,21.9414943 C67.9379582,21.6827379 68.1489382,21.4696383 68.4098142,21.4696383 Z M56.85736,20.5239719 C57.113994,20.5239719 57.329216,20.7370743 57.329216,20.9958279 C57.329216,21.2544163 57.113994,21.4696383 56.85736,21.4696383 C56.5964882,21.4696383 56.3856678,21.2544163 56.3856678,20.9958279 C56.3856678,20.7370743 56.5964882,20.5239719 56.85736,20.5239719 Z M55.4812538,19.5783041 C55.7378878,19.5783041 55.9531098,19.7935261 55.9531098,20.0522783 C55.9531098,20.3110361 55.7378878,20.5239719 55.4812538,20.5239719 C55.222664,20.5239719 55.007442,20.3110361 55.007442,20.0522783 C55.007442,19.7935261 55.222664,19.5783041 55.4812538,19.5783041 Z M63.322784,18.7805239 C63.5813738,18.7805239 63.7900718,18.9936221 63.7900718,19.2522161 C63.7900718,19.5130879 63.5813738,19.7261903 63.322784,19.7261903 C63.0640262,19.7261903 62.850928,19.5130879 62.850928,19.2522161 C62.850928,18.9936221 63.0640262,18.7805239 63.322784,18.7805239 Z M54.0986222,18.6349239 C54.3617802,18.6349239 54.5704782,18.8478583 54.5704782,19.1066161 C54.5704782,19.3653683 54.3617802,19.5783041 54.0986222,19.5783041 C53.8400338,19.5783041 53.6269342,19.3653683 53.6269342,19.1066161 C53.6269342,18.8478583 53.8400338,18.6349239 54.0986222,18.6349239 Z M76.6359622,12.0413486 L76.8837958,13.2935413 C77.1728762,13.3783253 77.3990238,13.6173473 77.4686402,13.913116 L78.7208338,14.0934453 L77.457716,14.3151866 C77.3778222,14.6044313 77.142548,14.8261726 76.8511842,14.900032 L76.6359622,16.1783117 L76.425146,14.8891073 C76.1424202,14.805952 75.91416,14.5804633 75.84682,14.291382 L74.6337578,14.0934453 L75.8554622,13.8782233 C75.933732,13.5804993 76.1685162,13.349952 76.4685222,13.2847353 L76.6359622,12.0413486 Z M68.368398,14.639156 C68.6837298,14.639156 68.953248,14.9044326 68.953248,15.2217193 C68.953248,15.5435746 68.6837298,15.804446 68.368398,15.804446 C68.0488298,15.804446 67.7858342,15.5435746 67.7858342,15.2217193 C67.7858342,14.9044326 68.0488298,14.639156 68.368398,14.639156 Z M61.6879242,13.843494 C62.0030922,13.843494 62.263964,14.1043653 62.263964,14.4239386 C62.263964,14.7413886 62.0030922,15.0043786 61.6879242,15.0043786 C61.3639502,15.0043786 61.1053618,14.7413886 61.1053618,14.4239386 C61.1053618,14.1043653 61.3639502,13.843494 61.6879242,13.843494 Z M65.211832,7.59769725 C65.4705842,7.59769725 65.6858062,7.80867725 65.6858062,8.06954863 C65.6858062,8.32814263 65.4705842,8.54124125 65.211832,8.54124125 C64.950956,8.54124125 64.73362,8.32814263 64.73362,8.06954863 C64.73362,7.80867725 64.950956,7.59769725 65.211832,7.59769725 Z"/>
    <path d="M139.999511,8.05492493 L139.613359,9.22830414 C134.234053,24.8439561 120.329006,37.6912646 102.689423,50.3048899 L106.977668,50.3049567 L114.401798,69.0095783 L116.877806,71.4944005 L103.390658,71.4944005 L105.864714,69.0095783 L104.986388,66.7290567 L97.544972,66.7290567 L96.7753962,69.3356705 L98.5472138,71.4944005 L94.2620867,71.4935678 C97.513899,81.1050712 101.150947,101.219727 78.0621282,91.4707807 L78.0115798,91.3126283 C96.43033,98.8971004 98.7337888,86.4881382 93.2281801,71.4948084 L91.512274,71.4944005 L92.7549833,70.248685 C92.0403157,68.4261607 91.2155552,66.5730745 90.2952411,64.7198992 C90.6824135,68.3685018 87.7081479,70.5379518 84.8599962,71.4676605 C81.5578752,72.5420895 78.0057044,72.1381093 75.0353417,71.1257777 L74.8424558,71.0589025 L72.372804,72.8719725 L72.2258462,70.529905 C68.2737544,73.0819229 64.2760943,75.6761738 60.2684736,78.3314951 C63.9299617,81.7520194 68.7185563,83.7167232 66.6270682,85.5923207 C64.6824575,87.3303325 60.7932837,82.4408123 58.6635959,79.3977282 L57.7770158,79.9895321 C43.2952788,89.6728347 28.7794597,100.203595 15.9069218,112.468858 L16.017792,110.475342 C28.4867138,97.7512949 42.7904392,87.0815164 57.2591449,77.2861268 L57.1857342,77.1683947 L57.1857342,77.1683947 C54.4874861,73.91544 51.859827,70.5421286 49.2418478,66.7291459 L49.0225162,66.7290567 L48.2529418,69.3356705 L50.031282,71.4944005 L42.9898196,71.4944005 L45.4659982,69.0095783 L50.244222,52.4702065 L48.092016,50.3049567 L58.4552122,50.3049567 L65.874942,69.0095783 L67.4101428,70.5459551 C68.9557173,69.5353853 70.4987159,68.5316596 72.0370972,67.5333356 L71.9358402,65.9306185 C72.2495992,66.3035946 72.6021264,66.6321043 72.9805444,66.9214511 L78.632135,63.2602265 C81.3087661,61.5253371 83.9619542,59.8008158 86.5806336,58.0787449 C86.1367236,57.3674684 85.6808495,56.6621231 85.2138042,55.9642803 C84.5685429,54.99975 83.9063671,54.0491238 83.2310477,53.1142978 C82.4457058,52.9318826 81.6606933,52.8568923 80.9468982,52.9564083 C77.9163602,53.3782087 77.7772842,55.4586745 79.040402,56.1152605 L79.1140902,56.152983 L79.1979931,56.1946075 C80.0756566,56.6240644 82.0943864,57.4433341 83.6394454,58.0653894 C81.15671,59.6892609 78.6457508,61.3171588 76.1159917,62.955587 L75.9345496,62.8641891 L75.8175959,62.8039267 C73.9102622,61.8118734 72.1547011,60.4326529 71.905512,57.7087083 C71.5901802,54.3325187 74.1576682,51.9585667 76.5381358,50.8325747 C77.7679906,50.2498869 79.2506893,49.9386285 80.8079356,49.8949394 C80.5605441,49.5789097 80.3120512,49.2651971 80.0626373,48.9538132 C78.6317377,49.0669809 77.2777822,49.3977128 76.1185377,49.9469464 C73.1013091,51.3741344 70.9776213,53.9032119 70.9011132,56.9721402 C68.2726985,57.7255573 65.6386414,58.4408849 63.0096433,59.1291332 L60.6288508,53.1267882 L61.8582415,52.708971 C67.4215413,50.8157781 72.9668985,48.893149 78.3751746,46.8981548 C72.4512312,39.8528558 66.2252902,34.1900204 61.83303,30.9835343 C41.3567504,16.0203213 28.8630342,25.1725781 43.2392786,54.5099127 C43.7397881,55.5293213 44.2544121,56.5115681 44.7830777,57.4625467 L43.6650719,57.8463146 C43.3419031,57.2857503 43.0195823,56.7158122 42.6963376,56.1354765 C31.6243788,36.2089923 33.22011,15.8761866 53.2638302,24.7370801 C62.7321162,28.9212828 71.9639635,37.3119921 79.4157918,46.5126907 C81.8169432,45.6198228 84.1896381,44.7118852 86.5230702,43.7852407 C89.7166522,42.5156045 92.8601758,41.2069965 95.9275562,39.8439327 C114.605768,31.5525475 130.725386,21.3679319 139.999511,8.05492493 Z M18.1472527,68.5028925 L18.14764,68.6914089 L14.5871874,72.2644005 L14.5980466,72.2641321 C9.79932511,74.0681404 5.38940805,76.0937495 1.49350138,78.4662423 L1.43245416e-13,77.9466127 C5.19259573,74.5367223 11.3565513,71.430207 18.1472527,68.5028925 Z M56.463932,66.7289696 L50.8480023,66.7289696 C53.5123075,70.2860548 56.1811119,73.4076587 58.521676,76.4342274 C61.0009835,74.7648115 63.483954,73.1202702 65.96195,71.4944452 L54.8682022,71.4944005 L57.344378,69.0095783 L56.463932,66.7289696 Z M26.1460402,50.3049567 L34.0353412,63.5028687 L34.0353412,52.4702065 L31.8831338,50.3049567 L39.0550342,50.3049567 L36.9005448,52.4702065 L36.9005448,69.0095783 L39.3767248,71.4944005 L29.9613118,71.4944005 L21.8504314,57.7724587 L21.8504314,69.0095783 L23.9351364,71.4944005 L16.4415468,71.4944005 L18.9177268,69.0095783 L18.9177268,52.4702065 L16.769921,50.3049567 L26.1460402,50.3049567 Z M89.5557711,59.2849776 L88.6918322,59.8546676 C90.4209084,62.798664 91.8924268,65.6598284 93.0558258,68.3269047 L93.1301705,68.498905 C93.2556654,68.7920803 93.3889239,69.1175395 93.5273608,69.4714336 L93.9884442,69.0095783 L98.5501769,53.2158203 C95.6320937,55.2363738 92.6273609,57.255936 89.5557711,59.2849776 Z M25.5127482,65.4820219 L27.1210198,68.2033946 C25.7819979,68.5848614 24.4608835,68.9737666 23.1596373,69.3720721 L22.62036,68.72928 L22.6196736,66.6347712 C23.5741747,66.2478257 24.5388186,65.8636789 25.5127482,65.4820219 Z M80.9472314,64.9020404 L80.2035673,65.3830024 L78.3990104,66.5481884 C77.4943551,67.1319103 76.5862338,67.7173782 75.6750926,68.3048282 C77.4865951,68.9135116 79.2623946,69.0313176 80.0403618,69.0545827 C81.5273382,69.1044745 83.4491602,68.2761967 83.4817718,67.1175987 C83.5103506,66.0777068 82.439002,65.4808589 80.9472314,64.9020404 Z M47.7782017,57.4746421 L46.0859391,63.3318408 L44.5378407,63.7077632 L42.9971079,64.0831701 C41.2040846,64.5210474 39.4271573,64.9589395 37.6700212,65.4005825 L37.6700212,60.9737938 C40.9888198,59.797985 44.3676391,58.6349974 47.7782017,57.4746421 Z M52.1464762,55.8592803 L49.9486162,63.4529783 L55.142122,63.4529783 L52.1464762,55.8592803 Z M100.668932,55.8592803 L98.471072,63.4529783 L103.664572,63.4529783 L100.668932,55.8592803 Z M116.996892,35.8661839 L116.632189,36.1407398 C110.599025,40.6800095 104.012685,44.4149589 97.103608,47.5765485 C94.4843122,48.7754288 91.818602,49.8917139 89.119039,50.9379729 L89.0568133,49.1085207 C89.0304991,48.333851 88.1577994,47.8948992 87.5201679,48.3356164 L85.7031,49.5915405 L85.6594337,49.5780696 C84.2410713,49.1438104 82.7511393,48.9208341 81.3033905,48.9100499 C81.5603339,49.2450093 81.8144449,49.580752 82.0660085,49.9170055 C83.3090415,49.9943901 84.569172,50.2360208 85.7597471,50.6399791 L85.8599602,50.6744223 L88.0773782,49.1417905 L88.3014062,55.7369945 C87.8305235,55.1781515 86.3652592,54.2095871 84.6827318,53.5647775 C85.6087017,54.9112654 86.4897275,56.2567731 87.3216451,57.5913423 C90.6364464,55.4060244 93.8944022,53.2236203 97.072329,51.0278946 L96.2231578,50.3049567 L98.1150049,50.3049603 C104.733557,45.6996795 110.990112,41.0282299 116.675678,36.1429391 L116.996892,35.8661839 Z"/>
  </g>
</svg>