<?xml version="1.0" standalone="no"?>
<!DOCTYPE svg PUBLIC "-//W3C//DTD SVG 20010904//EN"
 "http://www.w3.org/TR/2001/REC-SVG-20010904/DTD/svg10.dtd">
<svg version="1.0" xmlns="http://www.w3.org/2000/svg"
 width="720.000000pt" height="720.000000pt" viewBox="0 0 720.000000 720.000000"
 preserveAspectRatio="xMidYMid meet">
<metadata>
Created by potrace 1.14, written by Peter Selinger 2001-2017
</metadata>
<g transform="translate(0.000000,720.000000) scale(0.100000,-0.100000)"
fill="#000000" stroke="none">
<path d="M3455 7184 c-227 -53 -409 -200 -505 -407 -42 -90 -61 -169 -65 -279
-8 -211 59 -378 220 -546 132 -138 182 -207 254 -350 32 -64 76 -177 85 -217
2 -5 8 -28 14 -50 6 -22 14 -62 18 -90 3 -27 8 -59 10 -70 7 -32 6 -234 -1
-295 -30 -269 -190 -603 -351 -731 -84 -67 -172 -197 -212 -314 -92 -267 -16
-577 188 -760 74 -67 108 -107 164 -190 113 -170 174 -331 211 -560 7 -43 7
-246 0 -305 -32 -281 -162 -550 -368 -760 -95 -98 -130 -147 -174 -246 -82
-183 -79 -407 7 -591 95 -205 286 -359 508 -409 70 -16 242 -12 319 7 270 68
474 271 538 537 57 239 -12 488 -186 673 -127 135 -202 236 -264 359 -58 114
-104 259 -123 385 -9 65 -9 336 1 396 43 266 163 498 365 705 102 104 165 204
193 304 82 293 11 550 -210 763 -171 165 -285 386 -346 672 -14 62 -17 303 -6
386 36 270 164 531 366 744 121 127 174 219 210 364 18 74 24 212 12 281 -31
177 -125 335 -268 452 -78 64 -202 122 -304 144 -62 13 -240 11 -300 -2z"/>
<path d="M4750 5780 c-545 -115 -763 -776 -391 -1192 205 -230 552 -304 835
-179 215 95 386 314 422 541 81 509 -365 936 -866 830z"/>
<path d="M2210 5770 c-61 -8 -163 -41 -224 -72 -249 -126 -401 -386 -392 -668
4 -119 22 -192 71 -294 42 -88 63 -117 167 -226 96 -100 171 -205 226 -316
107 -217 143 -380 137 -624 -8 -326 -130 -617 -362 -860 -102 -107 -115 -123
-156 -201 -64 -120 -82 -200 -82 -354 0 -498 507 -841 980 -664 100 37 177 89
261 174 238 243 275 610 89 900 -18 28 -61 81 -97 118 -98 101 -114 121 -173
207 -187 277 -260 624 -200 955 11 59 48 190 56 199 5 6 9 16 9 22 0 20 59
142 103 214 53 86 110 159 195 248 110 114 185 243 206 357 5 22 10 50 12 63
3 13 5 51 6 85 11 394 -297 726 -687 741 -49 2 -115 0 -145 -4z"/>
<path d="M4857 2894 c-1 -1 -29 -5 -62 -9 -177 -20 -362 -129 -475 -281 -96
-128 -143 -268 -143 -428 0 -61 2 -122 5 -136 43 -190 125 -324 271 -443 55
-45 188 -115 234 -123 15 -3 29 -7 33 -9 16 -10 113 -19 195 -19 440 2 776
408 699 847 -32 186 -138 354 -289 462 -95 68 -165 99 -280 124 -43 10 -181
21 -188 15z"/>
</g>
</svg>
