<svg xmlns="http://www.w3.org/2000/svg" width="2160" height="606" fill-rule="evenodd" xmlns:v="https://vecta.io/nano"><path d="M2129.65 179.614c8.5 0 14.167.829 17 2.486s4.817 4.416 5.95 8.28v394.115c0 5.52-1.983 9.936-5.95 13.248s-9.633 4.692-17 4.14h-85c-7.933 0-13.317-1.38-16.15-4.14s-4.533-7.176-5.1-13.248V190.112c.933-3.657 2.633-6.332 5.101-8.024s5.867-2.515 10.2-2.469l90.95-.005zM2088 0c39.765 0 72 32.235 72 72s-32.235 72-72 72-72-32.235-72-72 32.235-72 72-72zM1057.403 11c72.083 0 117.49 28.657 136.22 85.972h0l166.018 492.849c1.812 6.143 1.812 10.399 0 12.768s-4.933 3.504-9.365 3.405h0-97.908c-5.217-.777-9.757-2.48-13.622-5.107s-6.419-5.748-7.662-9.363h0l-148.139-429.009c-6.243-20.429-14.757-30.643-25.541-30.643s-19.865 10.214-27.244 30.643h0L891.385 591.524c-1.328 5.011-3.314 8.699-5.96 11.066s-6.051 3.501-10.216 3.405h0H770.49c-4.744-1.563-7.865-4.116-9.365-7.661s-1.5-8.368 0-14.471h0L918.629 96.972C939.062 39.657 985.32 11 1057.403 11zM1061 331c39.212 0 71 31.788 71 71s-31.788 71-71 71-71-31.788-71-71 31.788-71 71-71zM1451.833 6l238.667.01c65.349 0 121.606 21.462 168.771 64.385 54.71 49.79 99.728 138.341 99.728 218.387s-20.457 169.663-92.057 239.268c-47.733 46.404-106.547 70.765-176.443 73.086l-238.667.864c-8.524 0-16.302-2.806-23.014-10.441-4.475-5.09-6.748-12.921-6.819-23.492V36.457c.562-9.274 3.403-16.525 8.524-21.752s12.224-8.128 21.309-8.705zm117.63 122.619c-6.222-.181-11.052 1.555-14.49 5.209s-5.143 8.863-5.116 15.628h0v310.822c.648 5.656 2.353 9.708 5.116 12.155s7.593 4.183 14.49 5.209h0l121.038.05c36.612-1.36 67.419-15.645 92.422-42.853 37.505-40.813 48.22-93.359 48.22-140.294s-23.581-98.856-52.238-128.05c-24.705-25.168-54.173-37.752-88.403-37.752h0zM699 169.734v407.741c0 6.242-1.984 11.917-5.953 17.025s-8.504 7.606-13.606 7.496h-85.036c-7.37.11-12.755-2.389-16.157-7.496s-5.102-10.782-5.102-17.025V169.734H699zM153.03 8c70.847 0 120.641 31.734 149.382 95.202h0l36.396 122.395c3.179 7.006 7.022 10.508 11.528 10.508 5.101 0 9.068-4.488 11.902-13.465l36.05-116.126c28.741-63.406 78.535-95.109 149.382-95.109C653.941 11.405 699 83.781 699 128.384v41.237h0-125.824c0-23.564-11.052-35.346-33.156-35.346-14.169 0-25.254 8.135-33.253 24.406L406.474 476.179C396.839 498.06 378.136 509 350.364 509s-46.476-12.063-56.111-36.188l-.005-.041-.022.003L193.934 155.42c-7.999-16.286-19.084-24.43-33.253-24.43-22.104 0-33.156 11.794-33.156 35.381h0l-.821-.001 2.551 409.681c0 7.696-1.984 13.853-5.953 18.471s-9.637 6.542-17.007 5.772H21.259c-7.937 0-13.322-1.924-16.157-5.772S.567 584.517 0 576.051L.85 166.33l.85-.001.001-41.236c0-44.2 44.162-115.647 148.159-117.071z"/></svg>