<svg xmlns="http://www.w3.org/2000/svg" width="571" height="1017" xmlns:v="https://vecta.io/nano"><path d="M285.738 1017c-56.748 0-102.752-45.918-102.752-102.561 0-31.897 14.588-60.392 37.467-79.203 30.511-32.939 49.088-76.596 49.088-124.487 0-45.619-16.857-87.396-44.825-119.729-25.317-18.678-41.731-48.686-41.731-82.521s16.41-63.834 41.717-82.515c27.977-32.333 44.838-74.116 44.838-119.74 0-47.878-18.567-91.525-49.061-124.462-22.896-18.809-37.495-47.314-37.495-79.222C182.987 45.918 228.99 0 285.738 0S388.49 45.918 388.49 102.561c0 31.319-14.065 59.36-36.233 78.172l.38-.001c-31.075 33.057-50.041 77.125-50.041 125.513 0 46.323 17.381 88.686 46.128 121.22 24.198 18.762 39.766 48.084 39.766 81.035 0 32.958-15.575 62.285-39.779 81.048-28.74 32.53-46.115 74.886-46.115 121.201 0 49.092 19.522 93.737 51.405 126.949l-.094-.001c21.214 18.788 34.583 46.206 34.583 76.741 0 56.643-46.004 102.561-102.752 102.561zm182.51-613.929c-56.748 0-102.752-45.918-102.752-102.561S411.5 197.949 468.248 197.949 571 243.867 571 300.51s-46.004 102.561-102.752 102.561zm-365.02 410.243C46.48 813.313.477 767.395.477 710.752c0-31.193 13.951-59.133 35.965-77.944 31.206-33.082 50.26-77.242 50.26-125.743 0-48.389-18.966-92.456-50.041-125.513l.054.002C14.543 362.742.477 334.7.477 303.379c0-56.643 46.004-102.561 102.752-102.561S205.98 246.736 205.98 303.379c0 31.321-14.066 59.363-36.237 78.175l.054-.002c-31.075 33.057-50.041 77.125-50.041 125.513 0 48.501 19.054 92.661 50.258 125.744 22.016 18.81 35.967 46.75 35.967 77.943 0 56.643-46.004 102.561-102.752 102.561zm365.02 0c-56.748 0-102.752-45.918-102.752-102.561S411.5 608.192 468.248 608.192 571 654.11 571 710.752s-46.004 102.561-102.752 102.561z" fill-rule="evenodd"/></svg>